# xmcd CD database file
#
# Track frame offsets:
#	175
#	20385
#	43335
#	68635
#	92647
#	138757
#	162857
#	182137
#	203880
#	233485
#	256252
#
# Disc length: 3435 seconds
#
# Revision: 0
# Processed by: cddbd v1.5PL3 Copyright (c) Steve Scherf et al.
# Submitted via: CDex 1.50Beta7
#
DISCID=8a0d690b
DTITLE=Louis Hjulmand and Niels Henning Ørsted Pedersen - Play With Us
DYEAR=1987
DGENRE=Jazz
TTITLE0=Play With Us
TTITLE1=Laura
TTITLE2=My Man Is Gone
TTITLE3=In Your Own Sweet Way
TTITLE4=Willow Weep For Me
TTITLE5=Very Early
TTITLE6=Land Of Thy
TTITLE7=For Elaine
TTITLE8=Here's That Rainy Day
TTITLE9=I Loves Your Porgy
TTITLE10=Signatur
EXTD=YEAR: 1987
EXTT0=
EXTT1=
EXTT2=
EXTT3=
EXTT4=
EXTT5=
EXTT6=
EXTT7=
EXTT8=
EXTT9=
EXTT10=
PLAYORDER=
